<svg xmlns="http://www.w3.org/2000/svg" viewBox="149.4 165.8 161.782 46.45">
  <defs>
    <style>
      .cls-1 {
        fill: #71e4ff;
        stroke: rgba(0,0,0,0);
      }
    </style>
  </defs>
  <path id="Tracé_8" data-name="Tracé 8" class="cls-1" d="M10-29.85V-35.7H2.9v5.85Zm-7.1,4V0H10V-25.85ZM27.65-6.1a5.029,5.029,0,0,1-2.75-.7,5.549,5.549,0,0,1-1.775-1.8,7.5,7.5,0,0,1-.95-2.475A14.116,14.116,0,0,1,21.9-13.85a11.61,11.61,0,0,1,.325-2.775,6.852,6.852,0,0,1,1.05-2.35,5.415,5.415,0,0,1,1.8-1.625,5.206,5.206,0,0,1,2.575-.6,5.834,5.834,0,0,1,2.9.65A5.177,5.177,0,0,1,32.4-18.8a7.558,7.558,0,0,1,1,2.525,14.661,14.661,0,0,1,.3,3.025,9.432,9.432,0,0,1-.375,2.675A7.087,7.087,0,0,1,32.2-8.3a5.544,5.544,0,0,1-1.9,1.6A5.647,5.647,0,0,1,27.65-6.1Zm12.8,4.45v-24.2H33.7v3.45h-.1a7.722,7.722,0,0,0-3.225-3.2,9.993,9.993,0,0,0-4.475-.95,10.435,10.435,0,0,0-4.775,1.05,10.269,10.269,0,0,0-3.475,2.825,12.611,12.611,0,0,0-2.125,4.1A16.113,16.113,0,0,0,14.8-13.75a19.673,19.673,0,0,0,.625,5.025A11.682,11.682,0,0,0,17.4-4.575a9.487,9.487,0,0,0,3.45,2.8,11.293,11.293,0,0,0,5,1.025,10.607,10.607,0,0,0,4.475-.975A7.029,7.029,0,0,0,33.6-4.75h.1v3.4A7.058,7.058,0,0,1,32.375,3.2,5.155,5.155,0,0,1,28,5a7,7,0,0,1-3.35-.775A4.051,4.051,0,0,1,22.7,1.45H15.65a7.465,7.465,0,0,0,1.225,3.775,8.847,8.847,0,0,0,2.7,2.575,12.31,12.31,0,0,0,3.6,1.475,16.536,16.536,0,0,0,3.875.475,17.46,17.46,0,0,0,7.1-1.2A10.874,10.874,0,0,0,38.2,5.625,8.753,8.753,0,0,0,40.025,1.9,17.308,17.308,0,0,0,40.45-1.65ZM58.2-6.1a5.029,5.029,0,0,1-2.75-.7,5.549,5.549,0,0,1-1.775-1.8,7.5,7.5,0,0,1-.95-2.475,14.116,14.116,0,0,1-.275-2.775,11.61,11.61,0,0,1,.325-2.775,6.852,6.852,0,0,1,1.05-2.35,5.415,5.415,0,0,1,1.8-1.625,5.206,5.206,0,0,1,2.575-.6,5.834,5.834,0,0,1,2.9.65,5.177,5.177,0,0,1,1.85,1.75,7.558,7.558,0,0,1,1,2.525,14.661,14.661,0,0,1,.3,3.025,9.432,9.432,0,0,1-.375,2.675A7.087,7.087,0,0,1,62.75-8.3a5.544,5.544,0,0,1-1.9,1.6A5.647,5.647,0,0,1,58.2-6.1ZM71-1.65v-24.2H64.25v3.45h-.1a7.722,7.722,0,0,0-3.225-3.2,9.993,9.993,0,0,0-4.475-.95,10.435,10.435,0,0,0-4.775,1.05A10.269,10.269,0,0,0,48.2-22.675a12.611,12.611,0,0,0-2.125,4.1,16.113,16.113,0,0,0-.725,4.825,19.673,19.673,0,0,0,.625,5.025,11.682,11.682,0,0,0,1.975,4.15,9.487,9.487,0,0,0,3.45,2.8,11.293,11.293,0,0,0,5,1.025,10.607,10.607,0,0,0,4.475-.975A7.029,7.029,0,0,0,64.15-4.75h.1v3.4A7.058,7.058,0,0,1,62.925,3.2,5.155,5.155,0,0,1,58.55,5a7,7,0,0,1-3.35-.775A4.051,4.051,0,0,1,53.25,1.45H46.2a7.465,7.465,0,0,0,1.225,3.775,8.847,8.847,0,0,0,2.7,2.575,12.31,12.31,0,0,0,3.6,1.475A16.536,16.536,0,0,0,57.6,9.75a17.46,17.46,0,0,0,7.1-1.2,10.874,10.874,0,0,0,4.05-2.925A8.753,8.753,0,0,0,70.575,1.9,17.308,17.308,0,0,0,71-1.65Zm5.7-24.2V0h7.1V-11.65a14.288,14.288,0,0,1,.35-3.25,7.117,7.117,0,0,1,1.175-2.625A5.715,5.715,0,0,1,87.5-19.3a7.564,7.564,0,0,1,3.3-.65,12.68,12.68,0,0,1,1.35.075q.7.075,1.2.175v-6.6a5.537,5.537,0,0,0-1.55-.25,8.479,8.479,0,0,0-2.6.4,9.528,9.528,0,0,0-2.35,1.125,8.844,8.844,0,0,0-1.95,1.75,8.732,8.732,0,0,0-1.35,2.225h-.1v-4.8ZM101.55-12.9a15.513,15.513,0,0,1,.3-3.05,7.782,7.782,0,0,1,1.025-2.65,5.757,5.757,0,0,1,1.925-1.875,5.714,5.714,0,0,1,3-.725,5.849,5.849,0,0,1,3.025.725,5.685,5.685,0,0,1,1.95,1.875,7.782,7.782,0,0,1,1.025,2.65,15.513,15.513,0,0,1,.3,3.05,15.139,15.139,0,0,1-.3,3.025,8.059,8.059,0,0,1-1.025,2.65,5.4,5.4,0,0,1-1.95,1.875,6.017,6.017,0,0,1-3.025.7,5.876,5.876,0,0,1-3-.7,5.459,5.459,0,0,1-1.925-1.875,8.059,8.059,0,0,1-1.025-2.65A15.139,15.139,0,0,1,101.55-12.9Zm-7.1,0a15.664,15.664,0,0,0,.95,5.6,12.148,12.148,0,0,0,2.7,4.275A11.811,11.811,0,0,0,102.3-.3a15.11,15.11,0,0,0,5.5.95,15.311,15.311,0,0,0,5.525-.95,11.767,11.767,0,0,0,4.225-2.725,12.148,12.148,0,0,0,2.7-4.275,15.663,15.663,0,0,0,.95-5.6,15.869,15.869,0,0,0-.95-5.625,12.105,12.105,0,0,0-2.7-4.3,12.05,12.05,0,0,0-4.225-2.75,14.96,14.96,0,0,0-5.525-.975,14.764,14.764,0,0,0-5.5.975,12.1,12.1,0,0,0-4.2,2.75,12.105,12.105,0,0,0-2.7,4.3A15.869,15.869,0,0,0,94.45-12.9ZM155.35,0l8.15-25.85h-7.3l-4.75,17.5h-.1l-4.4-17.5h-6.9L135.75-8.3h-.1L130.9-25.85h-7.5L131.6,0h7.35l4.4-17.35h.1L148.05,0Z" transform="translate(147 202)"/>
</svg>
